<svg width="46" height="46" viewBox="0 0 28 28" fill="none" xmlns="http://www.w3.org/2000/svg">
<circle cx="14" cy="14" r="14" fill="#7ECA9C"/>
<path fill-rule="evenodd" clip-rule="evenodd" d="M14 5C9.03125 5 5 9.03125 5 14C5 18.9688 9.03125 23 14 23C18.959 23 23 18.9688 23 14C23 9.03125 18.959 5 14 5ZM19.9445 9.14825C21.0526 10.4978 21.6658 12.1857 21.6823 13.9318C21.4287 13.883 18.8907 13.3655 16.3333 13.688C16.274 13.5605 16.2253 13.424 16.1667 13.2875C16.0077 12.9121 15.8386 12.5409 15.6597 12.1745C18.4903 11.0225 19.7788 9.3635 19.9445 9.14825ZM14 6.32825C15.9522 6.32825 17.7388 7.0595 19.0955 8.26025C18.959 8.45525 17.7972 10.0078 15.0642 11.0323C13.8042 8.71925 12.4092 6.82475 12.194 6.53225C12.786 6.39402 13.3921 6.3253 14 6.3275V6.32825ZM10.73 7.04975C10.9348 7.3235 12.3012 9.227 13.58 11.4913C9.9875 12.4482 6.815 12.4288 6.47375 12.4288C6.97175 10.0467 8.58275 8.06525 10.73 7.04975ZM6.308 14.0097V13.7758C6.64025 13.7855 10.3685 13.8343 14.2055 12.6823C14.4298 13.112 14.6345 13.5508 14.8295 13.9903C14.732 14.0195 14.6248 14.0487 14.5273 14.078C10.5642 15.3568 8.45525 18.851 8.27975 19.1442C7.01031 17.7354 6.30785 15.9062 6.308 14.0097ZM14 21.692C12.2232 21.692 10.5838 21.0868 9.2855 20.072C9.422 19.7885 10.9835 16.7818 15.3177 15.269C15.3372 15.2593 15.3477 15.2593 15.3665 15.2495C16.4502 18.0507 16.889 20.4035 17.0068 21.077C16.079 21.4775 15.0642 21.692 14 21.692ZM18.2855 20.3743C18.2075 19.9055 17.7972 17.6607 16.7915 14.8977C19.2028 14.5175 21.311 15.1423 21.575 15.23C21.2428 17.3675 20.0128 19.2125 18.2855 20.3743Z" fill="#353543"/>
</svg>
