<svg width="46" height="46" viewBox="0 0 28 28" fill="none" xmlns="http://www.w3.org/2000/svg">
<circle cx="14" cy="14" r="14" fill="#FCD12A"/>
<path fill-rule="evenodd" clip-rule="evenodd" d="M14 5C9.02898 5 5 9.13096 5 14.2278C5 18.3042 7.578 21.7635 11.1549 22.9847C11.6052 23.068 11.7676 22.7839 11.7676 22.5397C11.7676 22.3204 11.7604 21.7394 11.7577 20.9706C9.25366 21.5275 8.72488 19.7327 8.72488 19.7327C8.31702 18.6669 7.72599 18.3828 7.72599 18.3828C6.90936 17.8101 7.78825 17.8231 7.78825 17.8231C8.6924 17.8879 9.16613 18.7742 9.16613 18.7742C9.96922 20.1842 11.274 19.7771 11.7847 19.5412C11.8669 18.9444 12.1015 18.5373 12.3577 18.307C10.3599 18.0747 8.25927 17.2828 8.25927 13.7458C8.25927 12.7401 8.61029 11.9148 9.18328 11.2709C9.09214 11.0368 8.78083 10.0978 9.27261 8.82842C9.27261 8.82842 10.0279 8.57955 11.7468 9.77304C12.481 9.56827 13.2383 9.46375 13.9991 9.46218C14.7599 9.46344 15.5173 9.56797 16.2514 9.77304C17.9712 8.57862 18.7256 8.82842 18.7256 8.82842C19.2174 10.0978 18.9088 11.0368 18.8149 11.2709C19.3924 11.9148 19.7389 12.7392 19.7389 13.7458C19.7389 17.292 17.6365 18.071 15.6314 18.2996C15.9518 18.5845 16.2405 19.147 16.2405 20.0075C16.2405 21.2417 16.2297 22.2372 16.2297 22.5397C16.2297 22.7867 16.3903 23.0735 16.8496 22.9829C20.4247 21.7598 23 18.3033 23 14.2278C23 9.13096 18.971 5 14 5Z" fill="#353543"/>
</svg>
