<svg width="46" height="46" viewBox="0 0 46 46" fill="none" xmlns="http://www.w3.org/2000/svg">
<path d="M30.1875 23C30.1875 24.9062 29.4302 26.7344 28.0823 28.0823C26.7344 29.4302 24.9062 30.1875 23 30.1875C21.0938 30.1875 19.2656 29.4302 17.9177 28.0823C16.5698 26.7344 15.8125 24.9062 15.8125 23C15.8125 22.5903 15.8556 22.1902 15.9299 21.8021H13.4167V31.3782C13.4167 32.0443 13.9557 32.5833 14.6218 32.5833H31.3806C31.6998 32.5827 32.0057 32.4555 32.2312 32.2295C32.4567 32.0036 32.5833 31.6974 32.5833 31.3782V21.8021H30.0701C30.1444 22.1902 30.1875 22.5903 30.1875 23V23ZM23 27.7917C23.6294 27.7915 24.2526 27.6674 24.8341 27.4264C25.4155 27.1854 25.9438 26.8322 26.3887 26.387C26.8337 25.9419 27.1866 25.4134 27.4273 24.8318C27.668 24.2503 27.7918 23.627 27.7917 22.9976C27.7915 22.3682 27.6674 21.745 27.4264 21.1635C27.1854 20.5821 26.8322 20.0538 26.387 19.6089C25.9419 19.1639 25.4134 18.811 24.8318 18.5703C24.2503 18.3296 23.627 18.2058 22.9976 18.2059C21.7265 18.2063 20.5075 18.7115 19.6089 19.6106C18.7103 20.5096 18.2056 21.7289 18.2059 23C18.2063 24.2711 18.7115 25.4901 19.6106 26.3887C20.5096 27.2873 21.7289 27.792 23 27.7917V27.7917ZM28.75 17.9687H31.6226C31.8134 17.9688 31.9965 17.8931 32.1317 17.7584C32.2669 17.6237 32.3431 17.4408 32.3437 17.25V14.3774C32.3437 14.1861 32.2678 14.0027 32.1325 13.8675C31.9973 13.7322 31.8139 13.6562 31.6226 13.6562H28.75C28.5587 13.6562 28.3753 13.7322 28.2401 13.8675C28.1048 14.0027 28.0289 14.1861 28.0289 14.3774V17.25C28.0312 17.6453 28.3547 17.9687 28.75 17.9687V17.9687ZM23 0C16.9 0 11.0499 2.42321 6.73654 6.73654C2.42321 11.0499 0 16.9 0 23C0 29.1 2.42321 34.9501 6.73654 39.2635C11.0499 43.5768 16.9 46 23 46C26.0204 46 29.0112 45.4051 31.8017 44.2492C34.5922 43.0934 37.1277 41.3992 39.2635 39.2635C41.3992 37.1277 43.0934 34.5922 44.2492 31.8017C45.4051 29.0112 46 26.0204 46 23C46 19.9796 45.4051 16.9888 44.2492 14.1983C43.0934 11.4078 41.3992 8.87229 39.2635 6.73654C37.1277 4.6008 34.5922 2.90663 31.8017 1.75077C29.0112 0.594913 26.0204 0 23 0V0ZM34.9792 32.3174C34.9792 33.7812 33.7812 34.9792 32.3174 34.9792H13.6826C12.2187 34.9792 11.0208 33.7812 11.0208 32.3174V13.6826C11.0208 12.2187 12.2187 11.0208 13.6826 11.0208H32.3174C33.7812 11.0208 34.9792 12.2187 34.9792 13.6826V32.3174V32.3174Z" fill="#FCD12A"/>
</svg>
