<svg width="46" height="46" viewBox="0 0 28 28" fill="none" xmlns="http://www.w3.org/2000/svg">
<circle cx="14" cy="14" r="14" fill="#7ECA9C"/>
<g clip-path="url(#clip0_14_24)">
<path d="M9.65075 20.75H6.38544V10.2346H9.65075V20.75ZM8.01612 8.80025C6.97213 8.80025 6.125 7.93512 6.125 6.89112C6.125 6.38957 6.32424 5.90855 6.6789 5.5539C7.03355 5.19924 7.51457 5 8.01612 5C8.51768 5 8.9987 5.19924 9.35335 5.5539C9.70801 5.90855 9.90725 6.38957 9.90725 6.89112C9.90725 7.93512 9.06012 8.80025 8.01612 8.80025ZM21.8716 20.75H18.6136V15.6312C18.6136 14.4112 18.5889 12.8469 16.916 12.8469C15.2184 12.8469 14.9579 14.1721 14.9579 15.5435V20.75H11.696V10.2346H14.8274V11.669H14.873C15.3089 10.8427 16.3738 9.97081 17.9623 9.97081C21.2669 9.97081 21.8744 12.1471 21.8744 14.9737V20.75H21.8716Z" fill="#353543"/>
</g>
<defs>
<clipPath id="clip0_14_24">
<rect width="18" height="18" fill="white" transform="translate(5 5)"/>
</clipPath>
</defs>
</svg>
